<svg version="1.0" xmlns="http://www.w3.org/2000/svg"
 width="128.000000pt" height="128.000000pt" viewBox="0 0 128.000000 128.000000"
 preserveAspectRatio="xMidYMid meet">
<g transform="translate(0.000000,128.000000) scale(0.100000,-0.100000)">
<path d="M510 1217 c-24 -8 -36 -19 -38 -34 -2 -13 2 -23 8 -23 6 0 35 -25 65
-55 61 -61 80 -66 156 -40 111 39 138 115 54 151 -42 17 -195 18 -245 1z"/>
<path d="M319 1126 c-48 -17 -86 -45 -138 -101 -85 -93 -127 -233 -118 -400
10 -176 55 -265 137 -265 42 0 56 13 75 67 16 46 4 86 -30 101 -14 7 -25 20
-25 30 0 22 27 62 43 62 7 0 37 12 67 26 94 43 140 100 140 172 0 50 -19 68
-58 54 -39 -13 -62 1 -62 38 0 28 2 30 39 30 63 0 93 47 75 118 -16 61 -81 92
-145 68z m97 -62 c13 -19 15 -32 8 -52 -8 -23 -16 -27 -49 -29 -47 -1 -65 -22
-65 -75 0 -55 38 -93 86 -85 39 7 44 -6 19 -53 -20 -39 -68 -74 -137 -100
-104 -39 -142 -137 -67 -175 49 -26 30 -105 -22 -92 -96 24 -116 341 -33 509
68 137 215 222 260 152z"/>
<path d="M847 1082 c-21 -23 -22 -58 -2 -96 20 -38 12 -46 -41 -46 -52 0 -85
-26 -110 -86 -13 -32 -13 -38 0 -60 9 -13 16 -35 16 -48 0 -33 39 -59 73 -51
14 4 35 18 48 31 17 18 33 24 64 24 31 0 47 6 65 25 13 14 29 25 36 25 20 0
54 -50 54 -81 0 -40 -30 -56 -130 -68 -118 -15 -167 -56 -189 -162 -39 -179
28 -389 123 -389 41 0 141 49 193 94 138 120 215 374 169 556 -36 142 -128
279 -217 324 -64 31 -128 35 -152 8z m129 -44 c91 -42 185 -200 206 -344 10
-69 9 -94 -4 -163 -38 -190 -143 -330 -284 -378 -44 -15 -46 -14 -68 6 -57 54
-81 254 -43 353 24 63 55 85 125 93 141 15 182 43 182 121 0 36 -6 51 -32 79
-48 50 -80 55 -116 16 -26 -28 -33 -31 -68 -26 -35 6 -41 4 -62 -24 -31 -43
-62 -42 -62 2 0 18 -5 38 -11 44 -9 9 -7 20 8 45 17 30 24 33 74 38 88 8 111
41 68 100 -43 58 3 78 87 38z"/>
<path d="M312 317 c-51 -54 -36 -134 35 -197 61 -53 132 -74 230 -68 128 9
148 55 57 136 -31 28 -65 64 -75 81 -23 38 -58 53 -97 42 -22 -7 -34 -4 -53
10 -33 25 -71 24 -97 -4z m78 -37 c22 -16 37 -19 72 -14 43 6 46 5 66 -27 12
-19 44 -54 72 -78 31 -26 48 -47 43 -52 -5 -5 -32 -12 -60 -16 -156 -18 -309
106 -240 195 12 16 14 16 47 -8z"/>
</g>
</svg>
